<?xml version="1.0" encoding="UTF-8" standalone="no" ?>
<!DOCTYPE svg PUBLIC "-//W3C//DTD SVG 1.1//EN" "http://www.w3.org/Graphics/SVG/1.1/DTD/svg11.dtd">
<svg xmlns="http://www.w3.org/2000/svg" xmlns:xlink="http://www.w3.org/1999/xlink" version="1.1" width="1280" height="1024" viewBox="0 0 1280 1024" xml:space="preserve">
<desc>Created with Fabric.js 5.3.0</desc>
<defs>
</defs>
<g transform="matrix(1 0 0 1 640 512)" id="background-logo"  >
<rect style="stroke: none; stroke-width: 0; stroke-dasharray: none; stroke-linecap: butt; stroke-dashoffset: 0; stroke-linejoin: miter; stroke-miterlimit: 4; fill: rgb(255,255,255); fill-opacity: 0; fill-rule: nonzero; opacity: 1;"  paint-order="stroke"  x="-640" y="-512" rx="0" ry="0" width="1280" height="1024" />
</g>
<g transform="matrix(3.8058774900582955 0 0 3.8058774900582955 639.1573886639676 511.3259109311742)" id="logo-logo"  >
<g style=""  paint-order="stroke"   >
		<g transform="matrix(0.12002648170193872 0 0 0.12002648170193872 -0.00006187482676978107 31.446938205907912)"  >
<path style="stroke: none; stroke-width: 1; stroke-dasharray: none; stroke-linecap: butt; stroke-dashoffset: 0; stroke-linejoin: miter; stroke-miterlimit: 4; fill: rgb(255,255,255); fill-rule: nonzero; opacity: 1;"  paint-order="stroke"  transform=" translate(-1023.9756969909736, -1325.5)" d="M 262 670 C 262.7620976419566 671.2834443069544 263.43050313961044 672.6202553022621 264 674 C 264.58 676.1 265.04 678.22 265.48 680.36 Q 265.81 682 266.18 683.63 L 267.17 688.32 C 270.45 703.7600000000001 274.1 718.98 279 734 L 279.4 735.21 C 284.82 751.96 292.26 768.26 300.46999999999997 783.8100000000001 C 308.5110003853256 798.730271674111 317.79377774453224 812.9471378999231 328.21999999999997 826.3100000000001 C 337.84999999999997 838.44 348.26 849.85 359 861 L 359.93 861.97 C 367.13 869.44 374.43 876.45 382.6 882.87 Q 384.85 884.68 387 886.57 C 408.4 905.0500000000001 432.25 921.0200000000001 456.5 935.5 Q 461.23 938.3 466 941 L 467.39 941.8 C 479.55464018099383 948.7238559682107 491.80219431495294 955.5010137129957 504.1300000000001 962.1300000000003 L 505.58 962.91 C 524.7294667115292 973.1845939564404 544.0453730662474 983.1459208787562 563.5200000000007 992.7900000000003 L 587.76 1004.89 L 594.25 1008.13 L 601.69 1011.83 L 602.61 1012.3000000000001 L 626.69 1024.3000000000002 C 639.903632820475 1030.8558666609097 653.0281619487441 1037.5898135339355 666.0600000000004 1044.5000000000002 L 670.5200000000001 1046.8700000000001 C 706.4000000000001 1065.92 741.0200000000001 1087.43 773.1600000000001 1112.3400000000001 Q 778.5000000000001 1116.5500000000002 783.71 1120.94 Q 785.69 1122.56 787.7 1124.17 C 793.8730920734865 1129.1649386957542 799.8604687016655 1134.3851305749185 805.6500000000002 1139.8200000000002 Q 808.4700000000001 1142.4500000000003 811.33 1145.0500000000002 C 819.95 1152.9400000000003 828.4300000000001 1160.89 835.99 1169.8200000000002 L 839.42 1173.7900000000002 C 850.79 1186.9400000000003 861.5699999999999 1200.6900000000003 870.5699999999999 1215.5800000000002 C 875.7099999999999 1224.2 880.41 1233.0800000000002 884.9999999999999 1242.0000000000002 L 885.7999999999998 1243.5600000000002 C 893.8499999999998 1259.2400000000002 900.7399999999999 1275.16 905.9999999999999 1292.0000000000002 C 913.7714224596778 1317.357212205297 919.3256295393701 1343.3415327961948 922.5999999999999 1369.6600000000003 C 923.5551207427852 1377.7045820296905 924.3253238933961 1385.7700427280788 924.9099999999999 1393.8500000000004 L 925.1699999999998 1397.1300000000003 C 925.9115598190367 1406.7343446849122 926.1885495461781 1416.3689150735527 926 1426 C 925.07 1425.15 925.07 1425.15 924 1424 C 923.37 1422.86 923.37 1422.86 922.83 1421.6 L 922.2 1420.1399999999999 L 921.5300000000001 1418.57 L 920.07 1415.1899999999998 L 919.2900000000001 1413.3899999999999 C 910.3365536935531 1392.616392317743 899.5927102245487 1372.6611501971754 887.1800000000001 1353.7499999999998 C 883.3832009806488 1348.0836097806905 879.4283145305437 1342.5247601075666 875.3199999999999 1337.0799999999997 C 868.5600000000001 1327.9599999999998 861.12 1319.6599999999996 853.3000000000001 1311.4399999999996 C 851.2222668057473 1309.245490142436 849.2048482102599 1306.9946512135866 847.2500000000001 1304.6899999999996 C 841.6736630477261 1298.1753009470917 835.5696497451283 1292.131491611314 829 1286.6199999999997 C 820.5692470606535 1279.7962309963495 811.5810843704041 1273.691505685704 802.1300000000001 1268.3699999999997 C 793.2700000000001 1263.4899999999996 784.2500000000001 1258.7699999999998 774.9300000000001 1254.8099999999997 L 773.6300000000001 1254.2499999999998 C 772.4418345668553 1253.7724364569594 771.2302887335854 1253.3552374785609 770 1253 Q 767 1252.4 764 1252 L 764.3 1252.77 C 766.66 1258.8899999999999 768.3399999999999 1265.07 769.6099999999999 1271.49 C 773.3599999999999 1290.93 774.7099999999999 1310.14 775.05 1329.93 Q 775.18 1339.97 775 1350 L 774.97 1351.6 C 774.5776957513779 1373.6256177006462 772.2453426481462 1395.573830045118 768 1417.1899999999998 C 765.53 1429.9099999999999 765.53 1429.9099999999999 764.14 1435.5299999999997 C 762.12 1443.7799999999997 762.12 1443.7799999999997 761.87 1446.3299999999997 Q 761.73 1449.6699999999996 762 1452.9999999999998 L 762.87 1453.4299999999998 C 788.93 1466.1699999999998 813.27 1480.4799999999998 836.79 1497.5499999999997 C 844.6334070862755 1503.2996897867558 852.2301920274125 1509.3784522649078 859.56 1515.7699999999998 C 861.8599999999999 1517.7299999999998 864.2099999999999 1519.6099999999997 866.56 1521.4999999999998 C 871.06 1525.1399999999999 875.3599999999999 1528.9899999999998 879.5899999999999 1532.9299999999998 Q 883.0899999999999 1536.1999999999998 886.6999999999999 1539.33 C 891.2795832877407 1543.3310836591882 895.7060850920526 1547.504070665363 899.9699999999998 1551.84 L 902.17 1554.04 L 906.75 1558.62 L 917.07 1568.9399999999998 L 919.21 1571.07 C 923.74 1575.6 928.07 1580.24 932.24 1585.11 L 935.24 1588.57 C 946.7983136646149 1601.9121354986924 957.8074687687838 1615.720284885406 968.2399999999998 1629.9599999999998 L 970.55 1633.0900000000001 C 990.0999999999999 1659.44 1006.52 1687.69 1023 1716.0000000000002 L 1023 1718.0000000000002 L 1028 1716.0000000000002 L 1028.88 1714.3500000000001 C 1038.71 1695.9 1049.0900000000001 1677.7 1060.98 1660.4900000000002 L 1063.82 1656.3200000000002 C 1078.96 1634.0000000000002 1094.79 1612.1000000000001 1112.97 1592.14 C 1114.4969756392504 1590.4417027240481 1116.0070500812262 1588.7282849245435 1117.5 1587 Q 1123.08 1580.62 1128.79 1574.34 L 1132.3899999999999 1570.33 C 1138.1608716490705 1563.9635316633678 1144.0962082985095 1557.7481004754156 1150.1899999999996 1551.6899999999998 L 1151.33 1550.5299999999997 C 1155.7884507694641 1546.0268873813447 1160.418543340062 1541.6970169514916 1165.21 1537.5499999999997 Q 1168.1100000000001 1535.0299999999997 1170.91 1532.3899999999996 C 1176.7849624055252 1527.0266461913175 1182.9048340078905 1521.937876183898 1189.25 1517.1399999999996 C 1191.3980923817687 1515.4737514180636 1193.5249306521114 1513.7802814473205 1195.63 1512.0599999999997 C 1204.7885121920817 1504.6470196942041 1214.253472609372 1497.6208629656833 1224 1491 L 1225 1490.32 C 1234.423745080114 1483.8370087099552 1244.0978284139842 1477.7256567555933 1254 1472 L 1255.07 1471.38 C 1263.6606637311522 1466.3411260103412 1272.4692085451443 1461.6832742829422 1281.4699999999998 1457.42 C 1285.31 1455.6200000000001 1285.31 1455.6200000000001 1287 1455 L 1289 1455 C 1287.5359319040917 1443.7770106412554 1285.600891536561 1432.6205020394925 1283.2 1421.5599999999997 C 1279.13 1402.46 1276.0800000000002 1383.62 1275.31 1364.06 Q 1275.11 1358.03 1275 1352 L 1274.95 1349.72 C 1274.8500000000001 1345.25 1274.89 1340.78 1274.98 1336.3 L 1275.04 1331.96 C 1275.32 1311.16 1277.04 1290.66 1280.87 1270.2 Q 1281.77 1265.48 1282.78 1260.8 L 1283.03 1259.6499999999999 L 1283.7 1256.6799999999998 C 1284 1254.9999999999998 1284 1254.9999999999998 1284.05 1253.2799999999997 L 1284 1251.9999999999998 C 1281.91 1252.3499999999997 1279.85 1252.7199999999998 1277.83 1253.3799999999999 Q 1276.11 1254.06 1274.4099999999999 1254.78 L 1273.1299999999999 1255.32 L 1269.06 1257.06 L 1267.6599999999999 1257.6699999999998 C 1259.4099999999999 1261.2299999999998 1251.54 1265.1 1243.9999999999998 1269.9999999999998 C 1233.4099999999999 1277.0399999999997 1223.6999999999998 1285.3299999999997 1214.3299999999997 1293.8999999999999 Q 1212.1999999999996 1295.85 1209.9799999999998 1297.6999999999998 C 1202.8299999999997 1303.6799999999998 1196.6499999999999 1310.6499999999999 1190.6499999999999 1317.7599999999998 C 1188.3993615237125 1320.4790757654 1186.1825244562906 1323.225953575258 1183.9999999999995 1326 L 1182.7999999999997 1327.4999999999998 C 1176.294251362835 1335.7322069844863 1170.2065648197386 1344.286341090822 1164.5599999999997 1353.13 L 1162.9799999999998 1355.57 C 1156.8299999999997 1365.1 1151.4899999999998 1375.07 1146.1299999999999 1385.04 Q 1143.9599999999998 1389.1 1141.7299999999998 1393.12 C 1135.7462640547637 1404.0545947958017 1130.4914873085238 1415.3725754800105 1126 1427 C 1125.5 1425.86 1125.5 1425.86 1125 1424 C 1124.9171169740298 1422.077398547728 1124.9237908661114 1420.1519806822205 1125.02 1418.23 L 1125.06 1416.49 L 1125.25 1410.75 L 1125.28 1409.75 C 1126.18 1383.99 1128.78 1358.27 1134 1333 C 1135.92 1324.1 1138.2 1315.3 1140.59 1306.51 L 1141.72 1302.28 C 1146.58 1283.98 1153.99 1266.48 1161.88 1249.28 C 1169.1113776772677 1233.6096299363992 1177.6727170366382 1218.5879754918606 1187.4699999999998 1204.38 C 1190.2767244367753 1200.4728388125075 1193.2048191189951 1196.6543098704326 1196.25 1192.9299999999998 L 1198.6 1189.9799999999998 C 1205.267860848237 1181.4981645958414 1212.29769967411 1173.3072512984907 1219.6699999999998 1165.4299999999998 Q 1221.6899999999998 1163.2599999999998 1223.6699999999998 1161.0499999999997 C 1232.55 1151.2099999999998 1241.6999999999998 1141.4499999999998 1251.87 1132.9499999999998 Q 1253.87 1131.2699999999998 1255.81 1129.5499999999997 C 1263.5560714013511 1122.9213874713898 1271.5623824901413 1116.6030736371529 1279.8100000000002 1110.6099999999994 Q 1282.6399999999999 1108.5299999999997 1285.44 1106.4299999999996 C 1305.17 1091.6399999999996 1325.8200000000002 1078.5899999999997 1347 1065.9999999999995 L 1348.43 1065.1499999999996 C 1365.92 1054.7699999999995 1383.98 1045.4199999999996 1402 1035.9999999999995 L 1403.01 1035.4699999999996 C 1424.97 1023.9899999999996 1447.01 1012.6299999999995 1469.44 1002.0999999999996 C 1476.3645824949094 998.8252350621964 1483.2419531160442 995.4515564055857 1490.0700000000004 991.9799999999996 Q 1494.42 989.7799999999995 1498.7700000000002 987.6199999999995 L 1501.7300000000002 986.1299999999995 Q 1506.6000000000001 983.6999999999996 1511.4800000000002 981.2899999999995 C 1522.9764816757126 975.6008095739472 1534.3395340342652 969.6458766184381 1545.5600000000004 963.4299999999994 Q 1551.0500000000002 960.4199999999995 1556.5700000000002 957.4799999999994 C 1568.8700000000001 950.9099999999994 1581.13 944.3199999999995 1593.0000000000002 936.9999999999994 L 1594.2500000000002 936.2299999999994 C 1612.2265112385226 925.2257911685593 1629.5091429943877 913.1262791199605 1646 900 L 1646.94 899.26 C 1655.8507633356255 892.245301735716 1664.4681021887534 884.8656836392705 1672.77 877.1399999999999 C 1674.1231801359527 875.8997497282945 1675.5035149113114 874.6894561933785 1676.91 873.51 C 1686.0788744172244 865.7607895015078 1694.5696834293242 857.2432167100159 1702.2900000000002 848.0499999999998 L 1703.0900000000001 847.0799999999999 Q 1704.7300000000002 845.15 1706.39 843.27 C 1717.8400000000001 830.18 1727.91 815.92 1736.96 801.09 C 1747.41 783.8100000000001 1756.68 765.84 1764 747 C 1771.51 727.34 1776.64 707.3 1781.16 686.78 Q 1782.42 681.13 1783.72 675.5 L 1784.1200000000001 673.81 L 1785.0000000000002 670 C 1786.3783957969154 671.2874962388462 1787.712503761154 672.6216042030849 1789.0000000000002 674 C 1790.1000000000001 675.65 1790.1000000000001 675.65 1790.9700000000003 677.3 C 1792.0702029855272 679.3762447719341 1793.1568926288505 681.4596221556066 1794.23 683.55 C 1806.8300000000002 707.9499999999999 1818.2800000000002 732.9599999999999 1826.5000000000002 759.1899999999999 C 1832.2859070631364 778.0668636431442 1836.7007278127116 797.3370047802005 1839.7100000000003 816.8499999999999 L 1840.1900000000003 819.8399999999999 C 1842.7700000000002 836.1399999999999 1843.1700000000003 852.29 1843.1300000000003 868.7599999999999 L 1843.1300000000003 876.1999999999999 C 1843.1700000000003 893.8499999999999 1842.8600000000004 911.4399999999999 1840.3100000000004 928.9399999999999 L 1840.0500000000004 930.7499999999999 C 1836.4718222201536 956.0427557008743 1830.751250401886 980.985786973976 1822.9500000000005 1005.31 C 1817.9400000000005 1020.56 1811.6400000000006 1035.1599999999999 1804.6700000000005 1049.61 L 1802.7300000000005 1053.6699999999998 C 1793.6300000000006 1072.7599999999998 1782.7500000000005 1090.6699999999998 1770.5000000000005 1107.8999999999999 C 1760.4200000000005 1121.9999999999998 1749.0300000000004 1134.9699999999998 1737.2100000000005 1147.62 C 1735.4780598383795 1149.4789823171022 1733.7580246731254 1151.3490205490937 1732.0500000000004 1153.2299999999998 C 1725.1100000000004 1160.86 1718.1200000000003 1168.1899999999998 1710.2800000000004 1174.8999999999999 L 1706.6800000000005 1178.03 C 1698.1788525967588 1185.5244960103778 1689.34669033303 1192.6349371830283 1680.2100000000005 1199.34 C 1661.4100000000005 1213.4099999999999 1640.6300000000006 1225.1899999999998 1619.7000000000005 1235.77 C 1601.0993663748693 1244.973834941144 1581.8314542257601 1252.7625641756035 1562.0600000000004 1259.07 Q 1561.5400000000004 1259.22 1561.0000000000005 1259.4099999999999 C 1553.1734297730738 1261.955099880669 1545.2696103548833 1264.2562118631802 1537.3000000000004 1266.31 L 1536.3000000000004 1266.57 C 1534.2193533025563 1267.128243136853 1532.1177618211566 1267.6052710445358 1530.0000000000005 1268 Q 1527.5000000000005 1268.17 1525.0000000000005 1268 L 1524.0000000000005 1267 C 1523.2400000000005 1223.45 1523.2400000000005 1223.45 1525.0700000000004 1211.83 Q 1526.1200000000003 1206.03 1527.6500000000003 1200.32 L 1528.7500000000002 1196.09 C 1532.4500000000003 1181.78 1536.9600000000003 1167.52 1543.0000000000002 1154 C 1547.2500000000002 1144.75 1551.9800000000002 1135.61 1557.7700000000002 1127.22 Q 1560.7700000000002 1123.02 1564.0000000000002 1119 L 1564.6400000000003 1118.2 C 1568.2440450056847 1113.7146783907867 1571.9789870489471 1109.3361257989977 1575.8400000000004 1105.07 C 1587.8800000000003 1091.55 1587.8800000000003 1091.55 1594.2500000000005 1086.5 Q 1596.6000000000004 1084.7 1599.0000000000005 1083 L 1600.4000000000005 1082 Q 1604.6500000000005 1078.95 1609.0000000000005 1076 L 1611.0000000000005 1076 L 1611.0000000000005 1072 C 1607.2005781717678 1073.4266017885807 1603.5304703725992 1075.1763432461605 1600.0300000000004 1077.23 Q 1596.1900000000005 1079.5 1592.3800000000003 1081.81 L 1590.7200000000003 1082.81 C 1570.4500000000003 1095.05 1550.9400000000003 1108.19 1533.0600000000002 1123.75 Q 1530.3200000000002 1126.15 1527.5900000000001 1128.59 Q 1525.5700000000002 1130.3899999999999 1523.5100000000002 1132.1499999999999 C 1512.7100000000003 1141.5199999999998 1501.9600000000003 1151.7099999999998 1492.9100000000003 1162.78 C 1490.5100000000002 1165.78 1488.2400000000002 1168.8799999999999 1486.0000000000002 1172 L 1484.8900000000003 1173.52 C 1481.9033336911318 1177.63002641254 1479.0354816162896 1181.8250937499256 1476.2900000000004 1186.1 C 1467.2300000000005 1199.9699999999998 1458.9300000000005 1214.1999999999998 1452.3800000000003 1229.4499999999998 C 1445.0900000000004 1246.7499999999998 1439.8100000000004 1264.7299999999998 1435.5600000000004 1283.0099999999998 C 1431.8500000000004 1299.4099999999999 1429.9200000000003 1316.1399999999999 1429.0600000000004 1332.9299999999998 C 1427.7100000000005 1360.7999999999997 1429.5100000000004 1388.7799999999997 1433.0000000000005 1416.4399999999998 C 1435.5500000000004 1436.34 1439.6800000000005 1455.9299999999998 1443.9100000000005 1475.5199999999998 L 1444.1900000000005 1476.7899999999997 C 1445.412189046538 1482.546045926067 1446.7625243946538 1488.2741351311604 1448.2400000000005 1493.9699999999998 C 1448.5800000000004 1495.3199999999997 1448.8600000000004 1496.61 1449.0000000000005 1497.9999999999998 C 1448.8500000000004 1499.4099999999999 1448.6000000000004 1500.7299999999998 1448.2600000000004 1502.0999999999997 L 1448.0000000000005 1502.9999999999998 L 1446.7800000000004 1503.5999999999997 C 1436.2897069725982 1508.7882916469441 1425.8720341090223 1514.1221401530952 1415.5299999999997 1519.6000000000001 C 1400.7353458930347 1527.464366173052 1386.2386376397214 1535.8768600098804 1372.0700000000002 1544.82 C 1349.9900000000005 1558.5399999999997 1328.8300000000004 1573.4599999999998 1309.1200000000003 1590.4599999999998 L 1308.3200000000004 1591.1499999999999 L 1307.5100000000004 1591.85 Q 1304.7100000000005 1594.25 1301.8700000000003 1596.61 C 1292.9700000000003 1604.05 1284.7000000000003 1612.02 1276.5400000000004 1620.26 L 1272.5800000000004 1624.23 C 1259.8500000000004 1636.97 1259.8500000000004 1636.97 1254.6800000000003 1643.18 Q 1253.6600000000003 1644.41 1252.6100000000004 1645.6200000000001 C 1245.5800000000004 1653.8600000000001 1239.3900000000003 1662.6200000000001 1233.3800000000003 1671.6200000000001 L 1232.3000000000004 1673.22 L 1229.2700000000004 1677.79 L 1228.3600000000004 1679.1599999999999 C 1227.2247375760314 1680.8361419323887 1226.2217063093535 1682.5981335241866 1225.3600000000004 1684.4299999999998 C 1224.8822703653063 1685.6105624252602 1224.4288413913032 1686.8008134820188 1224.0000000000005 1687.9999999999998 C 1228.4200000000005 1686.3299999999997 1232.8000000000004 1684.6099999999997 1237.0500000000004 1682.5299999999997 C 1249.1200000000003 1676.6099999999997 1261.6900000000005 1672.0899999999997 1274.3500000000004 1667.5899999999997 L 1278.9700000000003 1665.9299999999996 C 1309.1000000000004 1655.1599999999996 1340.5400000000002 1647.1899999999996 1372.0800000000002 1641.8099999999997 C 1391.6267944312006 1638.5462257415347 1411.2779236839945 1635.9414171966553 1431.0000000000002 1634 L 1432.11 1633.89 Q 1437.31 1633.3400000000001 1442.53 1633.14 L 1443.6299999999999 1633.1000000000001 C 1448.1751507761614 1632.955989269191 1452.7227217704315 1632.902645327909 1457.2699999999998 1632.94 Q 1468.1399999999999 1632.94 1479 1633 Q 1478.04 1634.05 1477 1635 C 1476 1635.54 1476 1635.54 1474.92 1635.95 L 1473.68 1636.45 L 1472.3200000000002 1636.96 L 1469.3600000000001 1638.1200000000001 L 1467.7600000000002 1638.74 Q 1463.5000000000002 1640.4 1459.2400000000002 1642.1 L 1457.4400000000003 1642.82 C 1436.5100000000002 1651.1599999999999 1416.0600000000002 1660.53 1395.7100000000003 1670.1899999999998 L 1390.8900000000003 1672.4699999999998 C 1363.3500000000004 1685.4599999999998 1335.8200000000004 1698.7999999999997 1309.2700000000004 1713.7299999999998 Q 1305.8900000000003 1715.62 1302.5000000000005 1717.4499999999998 C 1272.8000000000004 1733.6 1244.2000000000005 1752.3199999999997 1217.0600000000004 1772.4799999999998 Q 1213.7000000000005 1774.9599999999998 1210.3000000000004 1777.3999999999999 C 1200.5408421449035 1784.4820844314222 1191.0349143673723 1791.9067143376626 1181.8000000000004 1799.6599999999999 C 1179.423665534222 1801.6472627685052 1177.03024326511 1803.6140025161044 1174.6200000000003 1805.56 C 1165.0130086101758 1813.292081494681 1155.690189497464 1821.3707462141758 1146.6700000000003 1829.78 L 1145.6500000000003 1830.73 C 1137.714308832086 1838.240445874644 1129.9032429257798 1845.8814885794043 1122.2200000000003 1853.65 L 1111.8700000000003 1864 L 1109.7300000000002 1866.13 C 1105.2290062620903 1870.6154257208989 1100.9056829708534 1875.2756746698633 1096.7700000000002 1880.1000000000001 L 1093.7200000000003 1883.6200000000001 C 1087.0891527455622 1891.1839676031207 1080.7511517231783 1898.9997236007234 1074.7200000000003 1907.0500000000002 L 1072.4200000000003 1910.1000000000001 C 1058.4700000000003 1928.5400000000002 1046.2900000000002 1947.8500000000001 1034.6800000000003 1967.8300000000002 L 1031.6300000000003 1973.0600000000002 Q 1029.3000000000004 1977.0200000000002 1027.0000000000002 1981.0000000000002 C 1025.4790404303712 1979.7494895599007 1024.05496833421 1978.3855895241406 1022.7400000000002 1976.9200000000003 C 1020.3400000000003 1973.9400000000003 1018.6400000000002 1970.4200000000003 1016.7800000000002 1967.0800000000004 C 1010.900178029065 1956.632884215172 1004.5948927889292 1946.4309994192272 997.8800000000001 1936.5000000000002 L 997.2200000000003 1935.5200000000004 C 990.4700000000003 1925.4400000000005 983.5500000000003 1915.5000000000005 976.0000000000002 1906.0000000000005 L 974.8300000000003 1904.5200000000004 C 972.2670463920779 1901.308262558595 969.6567612928966 1898.1345825912636 966.9999999999999 1895 L 965.64 1893.38 C 959.64 1886.2600000000002 953.51 1879.2900000000002 947.16 1872.48 Q 943.11 1868.17 939.25 1863.68 C 936.5981970849696 1860.6437767378923 933.8155665742937 1857.7243502428787 930.91 1854.93 C 928.8266358679306 1852.8691826387046 926.8538732364456 1850.699477544855 925 1848.43 C 923.3180814458319 1846.3732872116466 921.4611384533548 1844.4661565707243 919.45 1842.73 L 917.5200000000001 1841.1200000000001 C 913.82 1837.95 910.4200000000001 1834.47 907.0000000000001 1831.0000000000002 C 902.5924291313661 1826.4463462393755 897.9740376048725 1822.1015877368504 893.16 1817.98 Q 891.0200000000001 1816.1600000000003 888.9000000000001 1814.3100000000002 C 881.7250594463607 1808.0665035216105 874.3720189954915 1802.0306743986748 866.8499999999999 1796.21 L 860.8200000000002 1791.4900000000002 L 854.1700000000002 1786.2600000000002 C 840.4700000000001 1775.4000000000003 825.8000000000002 1765.7400000000002 811.2500000000002 1756.0600000000002 L 808.8700000000002 1754.4800000000002 C 796.7772154949134 1746.347873812332 784.4833891594053 1738.518770412339 771.9999999999998 1731 L 770.4 1730.05 C 755.0223901146192 1720.7976489083603 739.4175886116285 1711.9282531823017 723.6 1703.4500000000003 Q 717.91 1700.43 712.27 1697.3500000000001 C 675.22 1677.2900000000002 637.15 1659.6200000000001 587.5 1638.8100000000002 L 586.13 1638.2500000000002 C 581.4999406209092 1636.2919416262357 576.785307158775 1634.5402200638716 572 1633 L 572 1632 C 601.7 1631.1 631.75 1633.95 661.15 1638.13 C 696.02 1643.21 730.61 1650.9 764.1 1661.89 C 775 1665.49 785.6800000000001 1669.6200000000001 796.3100000000001 1673.94 L 797.5100000000001 1674.42 C 813.2700000000001 1680.8200000000002 813.2700000000001 1680.8200000000002 819.3000000000001 1684.49 C 820.1743091190082 1685.0379541349348 821.0754308448631 1685.5419148038388 822.0000000000001 1686 C 823.3300000000002 1686.42 824.6300000000001 1686.72 826.0000000000001 1687 C 825.0166114888027 1684.2474385419687 823.8265542842431 1681.573152689026 822.4400000000002 1679 C 820.8980070573643 1676.501639070923 819.2907883840422 1674.0441283608848 817.6200000000001 1671.63 Q 817.2500000000001 1671.0300000000002 816.8400000000001 1670.46 C 807.5500000000002 1656.66 797.4000000000001 1643.01 785.9600000000002 1630.9 Q 784.2100000000002 1629.1100000000001 782.4100000000002 1627.38 C 780.4000000000002 1625.43 778.5700000000002 1623.38 776.7500000000002 1621.25 C 771.4031439276148 1614.9122428999644 765.5433322022777 1609.0256740434613 759.2300000000001 1603.65 L 755.1100000000002 1600.3300000000002 C 751.9224639840149 1597.7621763454213 748.8399513034851 1595.0666457763 745.8700000000002 1592.2500000000002 C 738.7000000000003 1585.6000000000001 730.8600000000002 1579.8100000000002 723.0000000000002 1574.0000000000002 L 721.8600000000002 1573.1600000000003 C 711.4738423434308 1565.4426828104006 700.8486384905958 1558.0523966403182 690 1551 L 688.94 1550.32 C 682.5929281853665 1546.220345300333 676.1991767218286 1542.1934152857589 669.7599999999998 1538.2399999999998 C 654.7100000000002 1528.97 639.1800000000001 1520.66 623.5400000000001 1512.44 C 617.812100310889 1509.4341825252243 612.0987008028723 1506.400814058307 606.4000000000002 1503.34 L 605.0600000000001 1502.63 L 604.0000000000001 1502 L 603.0000000000001 1501 C 602.8430013252115 1498.3356441380727 602.8430013252115 1495.6643558619273 603.0000000000001 1493 C 603.3800000000001 1490.07 604.0300000000001 1487.18 604.6700000000001 1484.3 Q 605.1500000000001 1482.1399999999999 605.6 1479.97 L 606.9300000000001 1473.74 C 610.5000000000001 1457.1200000000001 613.8100000000001 1440.47 616.32 1423.65 L 616.85 1420.1100000000001 C 620.0500000000001 1399.1100000000001 621.39 1378.0800000000002 621.32 1356.8500000000001 L 621.3100000000001 1351.95 C 621.2700000000001 1335.13 620.74 1318.63 618.0000000000001 1302 L 617.7400000000001 1300.37 C 614.8900000000001 1282.8999999999999 611.0800000000002 1265.57 605.2600000000001 1248.84 C 599.3177410538607 1232.3281686077673 591.9569168543051 1216.3618717530946 583.26 1201.1199999999997 C 576.5307553609313 1189.5748981623815 568.8330899254798 1178.6222007979018 560.2500000000001 1168.3799999999999 Q 556.6700000000001 1164.1499999999999 553.0000000000001 1159.9999999999998 L 551.0800000000002 1157.7799999999997 L 546.8800000000001 1152.9899999999998 L 544.0300000000001 1149.7499999999998 C 536.1600000000001 1140.8099999999997 527.9000000000001 1131.9499999999998 518.6300000000001 1124.4399999999998 L 514.4800000000001 1121.1699999999998 Q 512.5400000000001 1119.6299999999999 510.65000000000015 1118.0399999999997 C 499.1200000000002 1108.3399999999997 486.6100000000001 1100.1999999999998 474.00000000000017 1091.9999999999998 L 471.53000000000014 1090.3999999999999 C 467.71913428716044 1087.912587463612 463.89910831061115 1085.4392373112564 460.0699999999991 1082.9799999999993 C 457.8748483255516 1081.566380839226 455.68814280823403 1080.1396888248787 453.5100000000003 1078.6999999999998 L 448.8100000000002 1075.62 L 446.59000000000015 1074.1499999999999 Q 445.0600000000002 1073.12 443.51000000000016 1072.12 L 442.6100000000002 1071.51 C 441.7597904425485 1070.9732097842027 440.8891398730042 1070.469500067723 440 1070 C 438.6852318103218 1069.596370102435 437.35003306033485 1069.2625704149382 436 1069 L 437 1073 L 438.08 1073.64 C 448.52 1079.8600000000001 448.52 1079.8600000000001 452.81 1083.49 C 455.93 1086.21 458.91 1089.09 461.88 1091.98 C 463.5732450938189 1093.605415289601 465.3418582928323 1095.150449084211 467.18000000000006 1096.6100000000001 C 468.8752321643178 1097.9730348731844 470.4849435104622 1099.4391412652121 472 1101 C 475.65 1105.2 479 1109.63 482.32 1114.09 L 484.31 1116.72 C 491.56 1126.26 497.48 1136.3700000000001 503 1147 L 503.55 1148.05 C 508.82016234739257 1158.2788118758533 513.1932160043233 1168.9454492578693 516.62 1179.93 C 520.596667932444 1192.6443620680056 523.605261790139 1205.6414875332482 525.62 1218.81 C 526.08 1222.3400000000001 526.35 1225.88 526.5600000000001 1229.4400000000003 L 526.6300000000001 1230.4900000000002 C 527.0300000000001 1237.5900000000001 527.1100000000001 1244.6900000000003 527.1300000000001 1251.8100000000002 L 527.1300000000001 1259.3200000000002 Q 527.1400000000001 1261.17 527.0000000000001 1263.0000000000002 C 526.7308193256349 1264.3485564949858 526.3971024614358 1265.6834239517823 526.0000000000001 1267.0000000000002 L 523.0000000000001 1268.0000000000002 C 499.6400000000001 1262.8900000000003 477.1200000000001 1255.4500000000003 455.0000000000001 1246.4100000000003 C 445.1869017717334 1242.2637278248455 435.51485600059567 1237.7912404527435 426.0000000000001 1233.0000000000002 L 424.5200000000001 1232.2700000000002 C 407.9700000000001 1224.1100000000001 391.8400000000001 1214.9100000000003 376.9200000000001 1204.0000000000002 C 374.544520024279 1202.2338733270851 372.1844309337877 1200.4471392133798 369.84000000000015 1198.6400000000003 L 366.4800000000001 1196.1000000000004 C 355.35716785979605 1187.7104480429828 344.6918780221219 1178.7309082422491 334.5300000000001 1169.2000000000003 Q 330.3200000000001 1165.2500000000002 325.93000000000006 1161.5000000000002 C 318.29388785767713 1154.887168134416 311.18872496410995 1147.6850406648896 304.68000000000006 1139.9600000000003 Q 302.9100000000001 1137.8700000000003 301.0300000000001 1135.8900000000003 C 293.7300000000001 1128.0700000000004 287.36000000000007 1119.5900000000004 281.0000000000001 1111.0000000000002 L 280.22000000000014 1109.9500000000003 C 271.51000000000016 1098.2500000000002 263.98000000000013 1085.9700000000003 256.7500000000001 1073.3100000000002 L 254.6000000000001 1069.5700000000002 C 244.41335722369755 1051.8463144677962 235.78109358006859 1033.2735642795078 228.80000000000004 1014.0600000000002 C 221.091801101391 992.835002169975 215.24639156680556 970.9791263371687 211.33000000000013 948.7400000000002 L 209.6900000000001 939.0000000000002 L 209.49000000000012 937.8100000000002 C 205.6900000000001 914.8800000000002 204.61000000000013 892.2200000000001 204.85000000000014 868.9800000000001 C 205.09483001486066 845.6797274998695 207.37010704298527 822.4451338479614 211.6500000000001 799.5400000000002 C 215.91892608110797 777.5632392140665 222.05792306072277 755.9914394731637 230 735.06 C 235.74 720.0899999999999 242.57 705.68 249.68 691.31 L 250.5 689.65 C 253.79028254511874 682.798980087826 257.63298070243826 676.2272639179974 261.98999999999995 670" stroke-linecap="round" />
</g>
		<g transform="matrix(0.12002648170193872 0 0 0.12002648170193872 1.421085e-14 31.38692496505699)"  >
<path style="stroke: none; stroke-width: 1; stroke-dasharray: none; stroke-linecap: butt; stroke-dashoffset: 0; stroke-linejoin: miter; stroke-miterlimit: 4; fill: rgb(229,9,20); fill-rule: nonzero; opacity: 1;"  paint-order="stroke"  transform=" translate(-1023.9762125007668, -1325.0000000000005)" d="M 262 668 L 264 669 L 264.3 670.36 C 273.83 714.21 273.83 714.21 280 733 L 280.39 734.2 C 285.82 750.95 293.25 767.25 301.46999999999997 782.82 C 309.5110003853256 797.740271674111 318.79377774453224 811.957137899923 329.21999999999997 825.32 C 338.84999999999997 837.44 349.26 848.85 360 860 L 360.93 860.97 C 368.13 868.44 375.43 875.45 383.6 881.87 Q 385.85 883.68 388 885.57 C 409.4 904.0500000000001 433.25 920.0200000000001 457.5 934.5 Q 462.23 937.3 467 940 L 468.39 940.8 C 480.55464018099383 947.7238559682107 492.80219431495294 954.5010137129957 505.1300000000001 961.1300000000003 L 506.58 961.91 C 525.7294667115292 972.1845939564404 545.0453730662474 982.1459208787562 564.5200000000007 991.7900000000003 L 588.76 1003.89 L 595.25 1007.13 L 602.69 1010.83 L 603.61 1011.3000000000001 L 627.69 1023.3000000000001 C 640.9036328204749 1029.8558666609094 654.0281619487438 1036.5898135339353 667.06 1043.5 L 671.5200000000001 1045.87 C 707.4000000000001 1064.9199999999998 742.0200000000001 1086.4299999999998 774.1600000000001 1111.34 Q 779.5000000000001 1115.55 784.71 1119.9399999999998 Q 786.69 1121.5599999999997 788.7 1123.1699999999998 C 794.8730920734865 1128.164938695754 800.8604687016655 1133.3851305749183 806.6500000000002 1138.82 Q 809.4700000000001 1141.45 812.33 1144.05 C 820.95 1151.94 829.4300000000001 1159.8899999999999 836.99 1168.82 L 840.42 1172.79 C 851.79 1185.94 862.5699999999999 1199.69 871.5699999999999 1214.58 C 876.7099999999999 1223.1999999999998 881.41 1232.08 885.9999999999999 1241 L 886.7999999999998 1242.56 C 894.8499999999998 1258.24 901.7399999999999 1274.1599999999999 906.9999999999999 1291 C 914.7714224596778 1316.3572122052967 920.3256295393701 1342.3415327961945 923.5999999999999 1368.6599999999999 C 924.5566843601335 1376.707755654495 925.3268907880698 1384.77658489954 925.91 1392.8600000000001 L 926.1699999999998 1396.1000000000001 C 927.0399999999998 1406.41 927.1199999999999 1416.66 926.9999999999999 1427.0000000000002 L 923.9999999999999 1428.0000000000002 L 923.5299999999999 1426.8000000000002 C 915.3494513190082 1405.9631849217276 905.3718430185753 1385.8774764618022 893.7099999999998 1366.7700000000004 C 883.2899999999998 1349.8700000000001 871.7099999999998 1333.6500000000003 858.5099999999998 1318.7800000000002 C 837.0599999999997 1294.8100000000002 837.0599999999997 1294.8100000000002 825.3099999999997 1285.5100000000002 C 815.823895076387 1278.2050929337952 805.730452859115 1271.7248153153478 795.1399999999996 1266.1400000000003 C 786.9399999999997 1261.8400000000004 778.6999999999997 1257.6400000000003 770.0799999999998 1254.2700000000004 L 769 1254 Q 767.5 1253.95 766 1254 L 766.58 1255.62 C 768.5358700001185 1261.2841581629702 770.034012456017 1267.0961483155404 771.0600000000001 1273 L 771.32 1274.38 C 774.95 1294.0800000000002 775.9200000000001 1313.73 776.11 1333.75 Q 776.15 1342.37 776 1351 L 775.97 1352.66 C 775.6119291074624 1374.323715871526 773.346509545427 1395.9138000875575 769.2 1417.18 C 766.6 1430.54 766.6 1430.54 765.1400000000001 1436.6000000000001 L 764.7200000000001 1438.3600000000001 L 763.9200000000002 1441.6100000000001 Q 763.3700000000002 1443.7800000000002 763.0000000000002 1446.0000000000002 Q 762.8600000000002 1449.0000000000002 763.0000000000002 1452.0000000000002 L 763.8700000000002 1452.4300000000003 C 789.9300000000002 1465.1700000000003 814.2700000000002 1479.4800000000002 837.7900000000002 1496.5500000000002 C 845.6334070862757 1502.2996897867563 853.2301920274127 1508.3784522649082 860.5600000000002 1514.7700000000002 C 862.8600000000001 1516.7300000000002 865.2100000000002 1518.6100000000001 867.5600000000002 1520.5000000000002 C 872.0600000000002 1524.1400000000003 876.3600000000001 1527.9900000000002 880.5900000000001 1531.9300000000003 Q 884.0900000000001 1535.2000000000003 887.7000000000002 1538.3300000000004 C 892.2795832877409 1542.3310836591886 896.7060850920528 1546.5040706653635 900.97 1550.8400000000004 L 903.1700000000002 1553.0400000000004 L 907.7500000000002 1557.6200000000003 L 918.0700000000003 1567.9400000000003 L 920.2100000000003 1570.0700000000004 C 924.7400000000002 1574.6000000000004 929.0700000000003 1579.2400000000005 933.2400000000002 1584.1100000000004 L 936.2400000000002 1587.5700000000004 C 947.7983136646151 1600.9121354986928 958.807468768784 1614.7202848854065 969.24 1628.9600000000003 L 971.5500000000002 1632.0900000000006 C 991.1000000000001 1658.4400000000005 1007.5200000000002 1686.6900000000005 1024.0000000000002 1715.0000000000007 L 1024.0000000000002 1717.0000000000007 C 1025.4124358063286 1715.7481878869282 1026.7481878869278 1714.412435806329 1028.0000000000002 1713.0000000000007 C 1029.1586350264583 1711.2186106229203 1030.2201820162632 1709.375925282127 1031.1800000000003 1707.4800000000007 L 1032.9800000000002 1704.1700000000008 L 1033.9100000000003 1702.4200000000008 Q 1036.3900000000003 1697.8200000000008 1038.9300000000003 1693.2500000000007 L 1039.4500000000003 1692.3100000000006 C 1056.1500000000003 1662.1900000000007 1076.8500000000004 1633.5100000000007 1098.4400000000003 1606.7000000000007 C 1102.8021592874413 1601.3866078132844 1107.3139690652304 1596.1978598352803 1111.9700000000003 1591.1400000000008 C 1113.4969756392506 1589.4417027240488 1115.0070500812265 1587.7282849245441 1116.5000000000002 1586.0000000000007 Q 1122.0800000000002 1579.6200000000006 1127.7900000000002 1573.3400000000006 L 1131.39 1569.3300000000006 C 1137.1608716490707 1562.9635316633685 1143.0962082985097 1556.7481004754163 1149.1899999999998 1550.6900000000005 L 1150.3300000000002 1549.5300000000004 C 1154.7884507694644 1545.0268873813454 1159.4185433400621 1540.6970169514923 1164.2100000000003 1536.5500000000004 Q 1167.1100000000004 1534.0300000000004 1169.9100000000003 1531.3900000000003 C 1175.7849624055254 1526.0266461913182 1181.9048340078907 1520.9378761838987 1188.2500000000002 1516.1400000000003 C 1190.398092381769 1514.4737514180642 1192.5249306521116 1512.7802814473212 1194.6300000000003 1511.0600000000004 C 1203.788512192082 1503.6470196942043 1213.2534726093718 1496.6208629656837 1223 1490 L 1224 1489.32 C 1233.423745080114 1482.8370087099552 1243.0978284139842 1476.7256567555933 1253 1471 L 1254.07 1470.38 C 1262.6606637311522 1465.3411260103412 1271.4692085451443 1460.6832742829422 1280.4699999999998 1456.42 C 1284.31 1454.6200000000001 1284.31 1454.6200000000001 1286 1454 L 1288 1454 L 1286.38 1444.31 L 1286.1100000000001 1442.78 C 1284.6888407481947 1434.6205215057316 1283.095150564032 1426.4920347505256 1281.33 1418.3999999999999 C 1277.5500000000002 1400.7399999999998 1275.0200000000002 1383.2399999999998 1274.3100000000002 1365.1899999999998 Q 1274.1100000000001 1359.09 1274.0000000000002 1352.9999999999998 L 1273.9700000000003 1351.7299999999998 Q 1273.8300000000002 1343.5599999999997 1273.9700000000003 1335.3899999999999 L 1274.0400000000002 1330.86 C 1274.3421121117403 1308.5458099834211 1276.5737626428083 1286.2995665335413 1280.7100000000003 1264.37 Q 1281.8000000000002 1258.6699999999998 1283.0000000000002 1253 C 1260.8800000000003 1261.4 1260.8800000000003 1261.4 1250.6400000000003 1267.38 C 1241.2800000000004 1272.98 1232.5800000000004 1279.8200000000002 1224.2900000000004 1286.88 Q 1219.7600000000004 1290.8200000000002 1215.3300000000004 1294.89 Q 1213.2000000000003 1296.8500000000001 1210.9800000000005 1298.69 C 1203.8300000000004 1304.68 1197.6500000000005 1311.65 1191.6500000000005 1318.76 C 1189.3993615237132 1321.4790757654002 1187.1825244562913 1324.2259535752582 1185.0000000000002 1327.0000000000002 L 1183.8000000000004 1328.5 C 1177.2942513628357 1336.7322069844865 1171.2065648197392 1345.2863410908221 1165.5600000000004 1354.1300000000003 L 1163.9800000000005 1356.5700000000002 C 1157.8300000000004 1366.1000000000001 1152.4900000000005 1376.0700000000002 1147.1300000000006 1386.0400000000002 C 1145.8529874583567 1388.4203695450444 1144.5629681722125 1390.7937383608967 1143.2600000000007 1393.16 C 1138.8525871012193 1401.219234057232 1134.8346287258514 1409.4854158643636 1131.2200000000007 1417.93 L 1130.7600000000007 1419 L 1130.3100000000006 1420.05 Q 1128.3100000000006 1424.59 1126.0000000000007 1429 L 1124.0000000000007 1429 C 1124.4700000000007 1398.22 1126.2100000000007 1367.87 1131.9000000000008 1337.53 C 1134.0582720546736 1326.7634325189906 1136.6234429583665 1316.0824478198685 1139.5900000000006 1305.5100000000002 L 1140.720000000001 1301.28 C 1145.5800000000008 1282.98 1152.990000000001 1265.48 1160.880000000001 1248.28 C 1168.1113776772686 1232.6096299363992 1176.6727170366391 1217.5879754918606 1186.4700000000007 1203.38 C 1189.2767244367762 1199.4728388125075 1192.204819118996 1195.6543098704326 1195.250000000001 1191.9299999999998 L 1197.6000000000008 1188.9799999999998 C 1204.267860848238 1180.4981645958414 1211.2976996741108 1172.3072512984907 1218.6700000000008 1164.4299999999998 Q 1220.6900000000007 1162.2599999999998 1222.6700000000008 1160.0499999999997 C 1231.5500000000009 1150.2099999999998 1240.7000000000007 1140.4499999999998 1250.8700000000008 1131.9499999999998 Q 1252.8700000000008 1130.2699999999998 1254.8100000000009 1128.5499999999997 C 1262.556071401352 1121.9213874713898 1270.5623824901422 1115.6030736371529 1278.810000000001 1109.6099999999994 Q 1281.6400000000008 1107.5299999999997 1284.440000000001 1105.4299999999996 C 1304.170000000001 1090.6399999999996 1324.820000000001 1077.5899999999997 1346.000000000001 1064.9999999999995 L 1347.430000000001 1064.1499999999996 C 1364.920000000001 1053.7699999999995 1382.980000000001 1044.4199999999996 1401.000000000001 1034.9999999999995 L 1402.010000000001 1034.4699999999996 C 1423.970000000001 1022.9899999999996 1446.010000000001 1011.6299999999995 1468.440000000001 1001.0999999999996 C 1475.3645824949103 997.8252350621964 1482.2419531160451 994.4515564055857 1489.0700000000013 990.9799999999996 Q 1493.420000000001 988.7799999999995 1497.7700000000011 986.6199999999995 L 1500.7300000000012 985.1299999999995 Q 1505.600000000001 982.6999999999996 1510.4800000000012 980.2899999999995 C 1521.9764816757136 974.6008095739472 1533.339534034266 968.6458766184381 1544.5600000000013 962.4299999999994 Q 1550.050000000001 959.4199999999995 1555.570000000001 956.4799999999994 C 1567.870000000001 949.9099999999994 1580.130000000001 943.3199999999995 1592.0000000000011 935.9999999999994 L 1593.2500000000011 935.2299999999994 C 1611.226511238523 924.2257911685593 1628.509142994388 912.1262791199604 1645 899 L 1645.94 898.26 C 1654.8507633356255 891.245301735716 1663.4681021887534 883.8656836392705 1671.77 876.1399999999999 C 1673.1231801359527 874.8997497282945 1674.5035149113114 873.6894561933785 1675.91 872.51 C 1685.0788744172244 864.7607895015078 1693.5696834293242 856.2432167100159 1701.2900000000002 847.0499999999998 L 1702.0900000000001 846.0799999999999 Q 1703.7300000000002 844.15 1705.39 842.27 C 1716.8400000000001 829.18 1726.91 814.92 1735.96 800.09 C 1746.41 782.8100000000001 1755.68 764.84 1763 746 C 1770.51 726.34 1775.64 706.3 1780.16 685.78 Q 1781.42 680.13 1782.72 674.5 L 1783.1200000000001 672.81 L 1784.0000000000002 669 L 1788.0000000000002 670 C 1796.2521754160753 684.4803767677336 1803.8270115379214 699.3363989767466 1810.7 714.5199999999995 C 1819.6899719666649 734.2425366773698 1826.9895112359275 754.692620798819 1832.52 775.6499999999996 C 1835.8869956677688 788.9129047469385 1838.6233999386188 802.3279598308632 1840.7200000000003 815.85 L 1841.1900000000003 818.84 C 1843.8200000000004 835.4300000000001 1844.1700000000003 851.86 1844.1300000000003 868.62 L 1844.1300000000003 876.42 C 1844.1700000000003 894.3199999999999 1843.9000000000003 912.18 1841.3100000000004 929.9399999999999 L 1841.0500000000004 931.7499999999999 C 1837.4718222201536 957.0427557008743 1831.751250401886 981.985786973976 1823.9500000000005 1006.31 C 1818.9400000000005 1021.56 1812.6400000000006 1036.1599999999999 1805.6700000000005 1050.61 L 1803.7300000000005 1054.6699999999998 C 1794.6300000000006 1073.7599999999998 1783.7500000000005 1091.6699999999998 1771.5000000000005 1108.8999999999999 C 1761.4200000000005 1122.9999999999998 1750.0300000000004 1135.9699999999998 1738.2100000000005 1148.62 C 1736.4780598383795 1150.4789823171022 1734.7580246731254 1152.3490205490937 1733.0500000000004 1154.2299999999998 C 1726.1100000000004 1161.86 1719.1200000000003 1169.1899999999998 1711.2800000000004 1175.8999999999999 L 1707.6800000000005 1179.03 C 1699.1788525967588 1186.5244960103778 1690.34669033303 1193.6349371830283 1681.2100000000005 1200.34 C 1662.4100000000005 1214.4099999999999 1641.6300000000006 1226.1899999999998 1620.7000000000005 1236.77 C 1602.0993663748693 1245.973834941144 1582.8314542257601 1253.7625641756035 1563.0600000000004 1260.07 Q 1562.5400000000004 1260.22 1562.0000000000005 1260.4099999999999 C 1553.895883619708 1263.0603439206263 1545.708282202676 1265.4482553725998 1537.4500000000005 1267.57 C 1535.325220325932 1268.1540430435825 1533.1725240554977 1268.6313074880354 1531.0000000000005 1269 C 1528.6700000000005 1269.16 1526.3400000000004 1269.1 1524.0000000000005 1269 L 1523.0000000000005 1268 Q 1522.8600000000004 1259.4 1522.8000000000004 1250.8 L 1522.7000000000005 1242.82 C 1522.5300000000004 1232.8799999999999 1522.5000000000005 1223.04 1524.0300000000004 1213.2 C 1525.5600000000004 1203.98 1527.4700000000005 1194.8 1530.2500000000005 1185.8700000000001 Q 1530.4800000000005 1185.15 1530.6900000000005 1184.41 C 1534.8200000000006 1170.8000000000002 1539.5600000000004 1157.49 1545.9700000000005 1144.77 C 1550.0500000000004 1136.82 1554.4700000000005 1129.1399999999999 1559.8700000000006 1122 Q 1561.4000000000005 1119.98 1563.0000000000007 1118 L 1563.6400000000008 1117.2 C 1567.2440450056852 1112.7146783907867 1570.9789870489476 1108.3361257989977 1574.8400000000008 1104.07 C 1586.8800000000008 1090.55 1586.8800000000008 1090.55 1593.250000000001 1085.5 Q 1595.6000000000008 1083.7 1598.000000000001 1082 L 1599.400000000001 1081 Q 1603.650000000001 1077.95 1608.000000000001 1075 L 1610.000000000001 1075 L 1610.000000000001 1073 C 1604.2622269908832 1076.4236899802263 1598.5322123067504 1079.8603654539556 1592.8099999999954 1083.3100000000031 C 1572.5400000000009 1095.49 1552.940000000001 1108.4099999999999 1535.020000000001 1123.9099999999999 Q 1531.7800000000009 1126.7399999999998 1528.5900000000008 1129.59 Q 1526.5700000000008 1131.3899999999999 1524.510000000001 1133.1499999999999 C 1513.710000000001 1142.5199999999998 1502.960000000001 1152.7099999999998 1493.910000000001 1163.78 C 1491.510000000001 1166.78 1489.240000000001 1169.8799999999999 1487.000000000001 1173 L 1485.890000000001 1174.52 C 1482.9033336911325 1178.63002641254 1480.0354816162903 1182.8250937499256 1477.290000000001 1187.1 C 1468.2300000000012 1200.9699999999998 1459.9300000000012 1215.1999999999998 1453.380000000001 1230.4499999999998 C 1446.090000000001 1247.7499999999998 1440.810000000001 1265.7299999999998 1436.560000000001 1284.0099999999998 C 1432.7700000000011 1300.7599999999998 1430.850000000001 1317.8599999999997 1430.0000000000011 1334.9999999999998 C 1428.7600000000011 1362.1799999999998 1430.6600000000012 1389.5199999999998 1434.1300000000012 1416.4799999999998 C 1436.6900000000012 1436.0199999999998 1440.7500000000011 1455.2799999999997 1444.9100000000012 1474.5199999999998 L 1445.1900000000012 1475.7899999999997 Q 1446.4900000000011 1481.8699999999997 1447.9400000000012 1487.9299999999998 L 1448.3700000000013 1489.7299999999998 L 1449.1600000000012 1492.8799999999999 Q 1449.6700000000012 1494.9199999999998 1450.0000000000011 1496.9999999999998 Q 1450.1300000000012 1499.9999999999998 1450.0000000000011 1502.9999999999998 C 1448.4288068151513 1504.327466621732 1446.7496557239858 1505.521603951505 1444.9800000000012 1506.5699999999997 Q 1443.4000000000012 1507.3399999999997 1441.780000000001 1508.0599999999997 L 1437.9800000000012 1509.8099999999997 C 1406.800000000001 1524.1699999999996 1376.6800000000012 1542.3299999999997 1348.4100000000012 1561.7899999999997 C 1335.1355268799698 1571.0021430917923 1322.3545542838272 1580.905811332261 1310.1200000000015 1591.4599999999996 L 1309.3200000000013 1592.1499999999999 L 1308.5100000000014 1592.85 Q 1305.7100000000014 1595.25 1302.8700000000013 1597.61 C 1293.9700000000012 1605.05 1285.7000000000012 1613.02 1277.5400000000013 1621.26 L 1273.5800000000013 1625.23 C 1260.8500000000013 1637.97 1260.8500000000013 1637.97 1255.6800000000012 1644.18 Q 1254.6600000000012 1645.41 1253.6100000000013 1646.6200000000001 Q 1251.5600000000013 1649.0400000000002 1249.5600000000013 1651.5000000000002 L 1248.8300000000013 1652.4000000000003 C 1241.0700000000013 1662.0400000000004 1234.4700000000014 1672.5500000000004 1227.7200000000014 1682.9000000000003 Q 1226.3700000000015 1684.9700000000003 1225.0000000000014 1687.0000000000002 L 1226.6800000000014 1686.1500000000003 C 1241.809940101466 1678.6091873020416 1257.4165317984155 1672.0652418537702 1273.4000000000015 1666.5600000000004 L 1277.9400000000014 1664.9600000000005 C 1308.2293071134798 1654.2322319268062 1339.3930538595118 1646.155220476847 1371.0800000000015 1640.8200000000006 C 1386.707284735464 1638.2458233040559 1402.3953315023311 1636.0551651264084 1418.1300000000012 1634.2500000000005 L 1419.6300000000015 1634.0700000000004 C 1434.2000000000014 1632.3500000000004 1448.6700000000014 1631.8500000000004 1463.3300000000015 1631.9300000000003 L 1469.3400000000015 1631.9500000000003 L 1481.0000000000016 1632.0000000000002 L 1480.0000000000016 1635.0000000000002 L 1478.8200000000015 1635.4700000000003 C 1456.8900000000015 1644.1700000000003 1435.2300000000016 1653.2700000000002 1413.8400000000015 1663.2200000000003 Q 1409.3100000000015 1665.3200000000002 1404.7400000000016 1667.4000000000003 C 1388.401965947853 1674.9100079058799 1372.1993815357823 1682.7112522524326 1356.140000000002 1690.8000000000006 L 1351.3100000000018 1693.2100000000005 Q 1330.6100000000017 1703.4900000000005 1310.3900000000017 1714.6800000000005 Q 1306.2600000000016 1716.9600000000005 1302.1200000000017 1719.2100000000005 C 1272.8900000000017 1735.1100000000006 1244.7600000000018 1753.6400000000006 1218.0600000000018 1773.4800000000005 Q 1214.7000000000019 1775.9600000000005 1211.3000000000018 1778.4000000000005 C 1201.540842144905 1785.482084431423 1192.0349143673736 1792.9067143376633 1182.8000000000018 1800.6600000000005 C 1180.4236655342233 1802.647262768506 1178.0302432651113 1804.614002516105 1175.6200000000017 1806.5600000000009 C 1166.0130086101772 1814.2920814946817 1156.6901894974653 1822.3707462141765 1147.6700000000017 1830.7800000000007 L 1146.6500000000017 1831.7300000000007 C 1138.7143088320875 1839.2404458746446 1130.9032429257811 1846.881488579405 1123.2200000000016 1854.6500000000008 L 1112.8700000000017 1865.0000000000007 L 1110.7300000000016 1867.1300000000008 C 1106.2290062620916 1871.6154257208996 1101.9056829708547 1876.275674669864 1097.7700000000016 1881.1000000000008 L 1094.7200000000016 1884.6200000000008 C 1088.0891527455635 1892.1839676031213 1081.7511517231796 1899.999723600724 1075.7200000000016 1908.0500000000009 L 1073.4200000000017 1911.1000000000008 C 1059.4700000000016 1929.5400000000009 1047.2900000000016 1948.8500000000008 1035.6800000000017 1968.8300000000008 L 1032.6300000000017 1974.0600000000009 Q 1030.3000000000018 1978.020000000001 1028.0000000000016 1982.000000000001 L 1024.0000000000016 1981.000000000001 C 1020.9000000000016 1976.250000000001 1017.8100000000015 1971.480000000001 1015.0100000000016 1966.5400000000009 C 1003.2162477022233 1945.6989448702693 989.8402986601503 1925.7938210021111 975 1907 L 973.83 1905.52 C 971.2670463920776 1902.3082625585948 968.6567612928965 1899.1345825912633 965.9999999999998 1895.9999999999998 L 964.64 1894.38 C 958.64 1887.2600000000002 952.51 1880.2900000000002 946.16 1873.48 Q 942.11 1869.17 938.25 1864.68 C 935.5981970849696 1861.6437767378923 932.8155665742937 1858.7243502428787 929.91 1855.93 C 927.8266358679306 1853.8691826387046 925.8538732364456 1851.699477544855 924 1849.43 C 922.3180814458319 1847.3732872116466 920.4611384533548 1845.4661565707243 918.45 1843.73 L 916.5200000000001 1842.1200000000001 C 912.82 1838.95 909.4200000000001 1835.47 906.0000000000001 1832.0000000000002 C 901.5924291313661 1827.4463462393755 896.9740376048725 1823.1015877368504 892.16 1818.98 Q 890.0200000000001 1817.1600000000003 887.9000000000001 1815.3100000000002 C 880.7250594463607 1809.0665035216105 873.3720189954915 1803.0306743986748 865.8499999999999 1797.21 L 859.8200000000002 1792.4900000000002 L 853.1700000000002 1787.2600000000002 C 839.4700000000001 1776.4000000000003 824.8000000000002 1766.7400000000002 810.2500000000002 1757.0600000000002 L 807.8700000000002 1755.4800000000002 C 795.7772154949134 1747.347873812332 783.4833891594053 1739.518770412339 770.9999999999998 1732 L 769.4 1731.05 C 754.0223901146192 1721.7976489083603 738.4175886116285 1712.9282531823017 722.6 1704.4500000000003 Q 716.91 1701.43 711.27 1698.3500000000001 C 674.23 1678.2900000000002 636.17 1660.6000000000001 586.63 1639.88 L 585.29 1639.3300000000002 Q 577.1899999999999 1636.0300000000002 569 1633.0000000000002 L 569 1631.0000000000002 C 601.44 1630.2000000000003 633.96 1632.9200000000003 666.04 1637.7000000000003 C 700.81 1643.0000000000002 735.29 1650.8400000000004 768.64 1662.0700000000002 C 778.25782070613 1665.3967001603723 787.7783905157769 1668.9981766557905 797.1899999999999 1672.8700000000001 L 798.3699999999999 1673.3500000000001 C 807.5499999999998 1677.0600000000002 816.4499999999999 1680.96 824.9999999999999 1686.0000000000002 C 816.2399999999999 1672.2000000000003 807.2999999999998 1658.7000000000003 796.9999999999999 1646.0000000000002 L 796.2399999999999 1645.0600000000002 C 791.5399999999998 1639.2800000000002 786.7799999999999 1633.5600000000002 781.4099999999999 1628.38 C 779.3999999999999 1626.43 777.5699999999998 1624.38 775.7499999999999 1622.25 C 770.4031439276145 1615.9122428999644 764.5433322022774 1610.0256740434613 758.2299999999998 1604.65 L 754.1099999999999 1601.3300000000002 C 750.9224639840146 1598.7621763454213 747.8399513034848 1596.0666457763 744.8699999999999 1593.2500000000002 C 737.6999999999999 1586.6000000000001 729.8599999999999 1580.8100000000002 721.9999999999999 1575.0000000000002 L 720.8599999999999 1574.1600000000003 C 710.4738423434304 1566.4426828104006 699.8486384905954 1559.052396640318 688.9999999999998 1551.9999999999998 L 687.94 1551.32 C 681.5929281853665 1547.220345300333 675.1991767218286 1543.1934152857589 668.7599999999998 1539.2399999999998 C 653.7100000000002 1529.97 638.1800000000001 1521.66 622.5400000000001 1513.44 C 616.812100310889 1510.4341825252243 611.0987008028723 1507.400814058307 605.4000000000002 1504.34 L 604.0600000000001 1503.63 L 603.0000000000001 1503 L 602.0000000000001 1502 C 601.7100000000002 1494.44 601.7100000000002 1494.44 602.1500000000001 1490.72 C 602.5500000000001 1488.15 603.1000000000001 1485.6200000000001 603.6700000000001 1483.09 L 604.6 1478.79 L 605.9300000000001 1472.59 C 607.1089886520537 1467.106112272301 608.2590046926119 1461.6160356960709 609.3800000000001 1456.1199999999997 L 609.7300000000001 1454.4399999999998 C 613.0800000000002 1438.0399999999997 615.6200000000001 1421.5399999999997 617.7500000000001 1404.9499999999998 Q 618.0800000000002 1402.35 618.4400000000002 1399.7399999999998 C 621.4400000000002 1376.8199999999997 620.9000000000002 1352.8399999999997 619.9500000000002 1329.7899999999997 C 619.5200000000002 1320.7899999999997 618.4500000000002 1311.8899999999996 617.0000000000001 1302.9999999999998 L 616.7400000000001 1301.3599999999997 C 613.9000000000001 1283.8999999999996 610.0800000000002 1266.5699999999997 604.2600000000001 1249.8399999999997 C 598.3177410538607 1233.328168607767 590.9569168543051 1217.3618717530944 582.26 1202.1199999999994 C 575.5307553609313 1190.5748981623813 567.8330899254798 1179.6222007979015 559.2500000000001 1169.3799999999997 Q 555.6700000000001 1165.1499999999996 552.0000000000001 1160.9999999999995 L 550.0800000000002 1158.7799999999995 L 545.8800000000001 1153.9899999999996 L 543.0300000000001 1150.7499999999995 C 535.1600000000001 1141.8099999999995 526.9000000000001 1132.9499999999996 517.6300000000001 1125.4399999999996 L 513.4800000000001 1122.1699999999996 Q 511.54000000000013 1120.6299999999997 509.65000000000015 1119.0399999999995 C 498.1200000000002 1109.3399999999995 485.6100000000001 1101.1999999999996 473.00000000000017 1092.9999999999995 L 470.53000000000014 1091.3999999999996 Q 464.82000000000016 1087.6599999999996 459.08000000000015 1083.9799999999996 L 451.25000000000017 1078.9199999999996 L 448.88000000000017 1077.3799999999997 L 445.44000000000017 1075.1399999999996 L 442.32000000000016 1073.1199999999997 L 441.38000000000017 1072.5099999999998 C 439.98053319154025 1071.571871378797 438.5169356695953 1070.7331431185044 437 1070 C 437.94179670465513 1071.0565570531467 438.9434429468534 1072.0582032953448 440 1073 C 441.27 1073.88 442.56 1074.68 443.87 1075.5 C 447.6373185118259 1077.758636899582 451.20970001932506 1080.3275404555363 454.55000000000007 1083.18 Q 458.75 1087.01 462.83 1090.95 C 464.5483167305939 1092.5834192541167 466.33666357994963 1094.141549811298 468.19 1095.6200000000001 C 470.37191777611565 1097.3732377184779 472.39629918504454 1099.3139670030707 474.24 1101.42 C 477.3730273390776 1105.2260649079253 480.4008375537504 1109.1175346441844 483.31999999999994 1113.09 L 485.31 1115.7200000000003 C 492.56 1125.2600000000002 498.48 1135.3700000000003 504 1146.0000000000002 L 504.55 1147.0500000000002 C 509.82016234739257 1157.2788118758535 514.1932160043233 1167.9454492578695 517.62 1178.9300000000003 C 521.600868058566 1191.6466178882415 524.6095318230186 1204.6473883104152 526.62 1217.8200000000004 C 527.0960781768918 1221.6529607332727 527.4296413893919 1225.5022802055248 527.62 1229.3600000000001 C 528.0600000000001 1236.8400000000004 528.11 1244.3200000000004 528.12 1251.8100000000004 L 528.13 1253.5600000000004 L 528.13 1260.0200000000004 Q 528.14 1262.0100000000004 528 1264.0000000000005 C 527.74 1265.3700000000003 527.4 1266.6600000000005 527 1268.0000000000005 C 525.87 1268.3800000000006 524.75 1268.6400000000006 523.58 1268.8700000000003 L 522 1269.0000000000005 C 519.42 1268.7000000000005 516.94 1268.0800000000004 514.44 1267.4400000000005 L 512.1700000000001 1266.8700000000006 Q 508.57000000000005 1265.9700000000005 505.00000000000006 1265.0000000000007 L 503.87000000000006 1264.7000000000007 C 482.0400000000001 1258.9300000000007 460.56000000000006 1250.7300000000007 440.07000000000005 1241.2600000000007 C 435.02052784533913 1238.894636822644 429.9968981562998 1236.4744940527419 424.99999999999966 1234 L 423.52 1233.27 C 406.96999999999997 1225.11 390.84 1215.91 375.91999999999996 1205 C 373.5445200242789 1203.233873327085 371.1844309337876 1201.4471392133796 368.84000000000003 1199.64 L 365.47999999999996 1197.1000000000001 C 354.35716785979594 1188.7104480429825 343.6918780221218 1179.730908242249 333.53 1170.2 Q 329.32 1166.25 324.92999999999995 1162.5 C 317.293887857677 1155.8871681344158 310.18872496410984 1148.6850406648894 303.67999999999995 1140.96 Q 301.90999999999997 1138.8700000000001 300.03 1136.89 C 292.72999999999996 1129.0700000000002 286.35999999999996 1120.5900000000001 280 1112 L 279.22 1110.95 C 270.51000000000005 1099.25 262.98 1086.97 255.75000000000003 1074.31 L 253.60000000000002 1070.57 C 243.41335722369746 1052.846314467796 234.7810935800685 1034.2735642795076 227.79999999999995 1015.06 C 220.09180110139093 993.8350021699748 214.24639156680547 971.9791263371685 210.33000000000004 949.74 L 208.69000000000003 940 L 208.49000000000004 938.81 C 204.62000000000003 915.39 203.62000000000003 892.15 203.85000000000005 868.42 C 204.0836928027269 845.5583558518622 206.24805332053367 822.7573028543804 210.32000000000008 800.2600000000001 C 214.49237020745952 778.2133652507525 220.55474728223754 756.5667981018489 228.44000000000005 735.5600000000001 C 234.31000000000006 720.06 241.34000000000006 705.16 248.69000000000005 690.31 L 249.51000000000005 688.65 C 252.76000000000005 682.05 256.21000000000004 675.77 260.44000000000005 669.75 C 261.00000000000006 669 261.00000000000006 669 262.00000000000006 668" stroke-linecap="round" />
</g>
		<g transform="matrix(0.12002648170193872 0 0 0.12002648170193872 0.22480808141249042 -57.44673301323022)"  >
<path style="stroke: none; stroke-width: 1; stroke-dasharray: none; stroke-linecap: butt; stroke-dashoffset: 0; stroke-linejoin: miter; stroke-miterlimit: 4; fill: rgb(229,9,20); fill-rule: nonzero; opacity: 1;"  paint-order="stroke"  transform=" translate(-1025.849199846766, -584.8828465297565)" d="M 1594 145 C 1595.3325896035146 146.58829570044833 1596.536404820926 148.28032486714315 1597.6 150.05999999999997 Q 1598.4499999999998 151.76 1599.24 153.48 L 1599.86 154.79999999999998 L 1601.8799999999999 159.18999999999997 L 1602.59 160.75999999999996 C 1615.6299999999999 189.47999999999996 1627.12 219.47999999999996 1635.09 250.02999999999997 Q 1636.75 256.57 1638.1799999999998 263.17999999999995 L 1638.7499999999998 265.85999999999996 L 1639.0399999999997 267.16999999999996 C 1639.6349089584699 269.7473192165211 1640.4375315498532 272.27223611858125 1641.4399999999998 274.71999999999997 C 1642.7063230414253 277.7105118450694 1643.7101065481324 280.8055109907495 1644.4399999999998 283.96999999999997 C 1645.4399999999998 289.01 1646.1799999999998 294.09 1646.9399999999998 299.16999999999996 L 1647.5199999999998 303.02 C 1648.4618328949184 309.224338727383 1649.3651835959513 315.4344581223071 1650.2299999999996 321.64999999999924 C 1651.0799999999997 327.75 1651.61 333.84999999999997 1651.9999999999998 340 L 1652.1299999999999 341.95 C 1654.6599999999999 381.15 1655.1599999999999 420.35 1650.4999999999998 469.38 C 1646.4999999999998 505.14 1639.7999999999997 540.91 1629.6999999999998 575.47 C 1627.8684868332655 581.6675263967314 1625.9683702356274 587.8445721080009 1624 594 L 1623.43 595.8 C 1612.19 630.9399999999999 1596.8300000000002 664.93 1579.74 697.5999999999999 C 1565.39 724.8 1547.86 750.5899999999999 1529.02 774.8799999999999 C 1517.4 789.7899999999998 1505.36 804.3999999999999 1492.45 818.2099999999999 L 1491.0800000000002 819.67 L 1490.3600000000001 820.4399999999999 C 1488.9596006177744 821.9417164841167 1487.5827656924705 823.4652360019468 1486.23 825.01 C 1479.28 832.92 1471.84 840.35 1464.4 847.79 L 1459.8600000000001 852.3399999999999 C 1444.5900000000001 867.7399999999999 1444.5900000000001 867.7399999999999 1436.2600000000002 874.2099999999999 C 1433.8719156036548 876.1127727188057 1431.5759721784111 878.1283974700372 1429.38 880.2499999999999 C 1422.7 886.3699999999999 1415.4 891.7099999999999 1408.16 897.1299999999999 L 1404.7 899.7399999999999 C 1392.8472906642353 908.7000454632881 1380.6018524580245 917.1283770460915 1368 925 L 1366.44 925.98 C 1348.308888601626 937.3964344706174 1329.680603227345 948.0035129597524 1310.6100000000001 957.7700000000001 C 1293.2078565023614 966.8442490613506 1275.3096548607084 974.933661965235 1257 982 L 1255.97 982.4 C 1232.1542230501898 991.6130070291357 1207.7868998553033 999.3313299325599 1183.01 1005.51 C 1149.3981150920288 1014.1111570405362 1115.1024947528624 1019.7757897463126 1080.51 1022.4399999999999 C 1044.35 1025.1499999999999 1007.06 1025.9199999999998 970.94 1022.41 C 929.82 1018.23 889.2700000000001 1010.92 839.97 997.61 C 808.33 988.62 778.33 976.07 748.74 961.84 L 743.73 959.44 C 729.4278850296893 952.507766239633 715.453042732232 944.9197071698103 701.85 936.7 Q 698.4 934.63 694.9300000000001 932.6 C 683.9755085483679 926.2280628044218 673.3208463092452 919.3540871662781 663 911.9999999999999 L 661.89 911.2 C 649.2035348861361 902.1488413899888 636.924800325242 892.5393969510282 625.0899999999999 882.4000000000001 C 618.3382367027591 876.7327271349322 611.7262551234668 870.9009793879919 605.26 864.91 C 602.979731635545 862.7861052517825 600.6593128282447 860.7057297693752 598.3 858.6700000000001 C 593.7498944023981 854.6994212107894 589.3469354727893 850.5633082769144 585.0999999999999 846.2700000000001 L 582.9099999999999 844.0900000000001 L 573.7699999999999 834.9700000000001 C 565.6899999999998 826.9700000000001 557.8399999999999 819.0300000000001 550.8499999999999 810.0700000000002 C 548.8499999999999 807.5700000000002 546.6399999999999 805.2600000000002 544.4399999999999 802.9400000000002 C 539.7012743477846 797.850316487801 535.2158512343264 792.5305512773452 531 787 L 530.24 786.01 C 505.34056594712155 753.4792765050496 483.2669101126495 718.8800420946054 464.2600000000001 682.5900000000001 C 449.15999999999997 653.96 437.23 623.5600000000001 427.27 592.77 C 423.9335735650641 582.2534643884487 420.84273412576783 571.6605874751328 417.9999999999999 561 L 417.5 559.13 C 410.26538167319086 532.1910027671283 405.01794933985116 504.75729283588385 401.8000000000002 477.04999999999995 L 401.46000000000004 474.05 C 400.8943427151337 469.0413103161758 400.40761567390126 464.0240212952534 399.99999999999994 459 L 399.87 457.47 C 398.306799879742 437.8831857013897 397.5761415530023 418.23881936420685 397.67999999999995 398.5900000000006 L 397.69 394.42 C 397.71 371.51 398.41 348.77000000000004 401 326 L 401.25 323.8 Q 402.1 316.3 403.06 308.81 L 403.31 306.88 Q 403.66 304.23 404.04 301.58 L 404.24 300.03 C 404.44 298.66999999999996 404.66 297.34 405 296 C 405.46 294.98 405.46 294.98 405.98 294.04 C 406.51 293.07 406.51 293.07 407 292 C 407.54 289.97 407.88 287.92 408.23 285.85 L 408.90000000000003 282.1 L 409.26000000000005 280.11 C 413.97 253.8 421.43000000000006 228.08 430.64000000000004 202.98000000000002 C 437.82000000000005 183.60000000000002 446.15000000000003 164.67000000000002 455.00000000000006 146.00000000000003 Q 455.4700000000001 147.40000000000003 455.83000000000004 148.82000000000002 L 456 150 C 455.8276881734 151.6072092893853 455.516525904833 153.19647894066873 455.07 154.75 L 454.75 156.1 L 454.05 158.96 Q 453.13 162.71 452.28000000000003 166.46 L 451.93 167.94 C 449.9617499255259 176.35369964651272 448.7998303941553 184.93583151654985 448.46 193.57 L 448.4 194.79999999999998 C 447.90861332291985 205.39248210822802 447.7118706200687 215.99658032970768 447.8100000000002 226.5999999999998 C 447.84 241.48 447.93 256.25 450 271 L 450.25 272.81 C 454.27265925742677 301.73707255210667 460.79711666496763 330.26066198763874 469.74999999999983 358.0599999999999 C 472.27 365.76 474.95 373.42 477.66 381.06 L 479.23 385.48 C 484.56 400.51 490.77000000000004 415.13 497.38 429.64 L 499.11 433.44 C 504.1323155918599 444.3407991125024 509.51867424804055 455.0701587390865 515.26 465.6100000000001 L 517.65 470.08000000000004 L 523.7099999999999 481.38000000000005 C 526.5899999999999 486.74000000000007 529.4499999999999 492.05000000000007 532.9999999999999 497.00000000000006 L 537.9999999999999 497.00000000000006 L 537.9399999999999 495.32000000000005 C 537.5799999999999 484.76000000000005 537.6999999999999 474.32000000000005 539.1199999999999 463.84000000000003 C 541.056752273687 450.1837645571711 544.181948535413 436.7226675968682 548.4599999999999 423.6100000000001 C 552.714244751618 410.71053091074936 557.9081563508713 398.1401953092104 564 386 L 567 385 L 567.36 385.81 C 578.72 411.3 591.38 435.82 607 459 C 613.9477672985554 469.2771126274821 621.2864758149728 479.28444242259684 628.9999999999998 488.99999999999983 L 629.74 489.94 C 636.2737140797042 498.29927852680726 643.1564755234092 506.37976724064805 650.3699999999999 514.1599999999999 Q 652.47 516.4 654.47 518.7099999999999 C 659.3942451637517 524.3626200906799 664.5451222719331 529.8137426261517 669.9100000000001 535.0500000000001 L 673.71 538.8499999999999 C 679.704155887643 544.9872768007394 685.9950103970704 550.8275926582979 692.5600000000001 556.3499999999999 C 713.97 574.9999999999999 737.2800000000001 591.2199999999999 761.5600000000001 605.8699999999999 C 787.0300000000001 621.1499999999999 813.6 634.9699999999999 841.35 645.6199999999999 C 866.07 655.0499999999998 891.0600000000001 662.6499999999999 917 667.9999999999999 L 918.78 668.3699999999999 C 942.23 673.1699999999998 966 676.6199999999999 989.9399999999999 677.5699999999999 L 991.53 677.6299999999999 C 1029.86 679.0799999999999 1068.24 678.5099999999999 1106.28 673.2899999999998 C 1132.68 669.5599999999998 1158.84 663.1199999999999 1184.19 654.8999999999999 C 1211.99 645.8199999999998 1239.3300000000002 634.9599999999998 1265.23 621.3099999999998 C 1271.93 617.7299999999998 1278.48 613.9099999999999 1285 609.9999999999999 L 1286.37 609.1799999999998 C 1303.6395437190492 598.8788756886254 1320.218134377791 587.4612607638664 1336.0000000000002 575 L 1337.31 573.97 C 1347.4508478668486 566.0539105244494 1357.2529119588671 557.7131480227318 1366.69 548.97 Q 1369.67 546.1600000000001 1372.77 543.47 C 1378.1 538.9 1383.12 534.07 1388.08 529.1 L 1392.1399999999999 525.09 C 1397.4180541890655 519.8456100104929 1402.3801160720986 514.2925084549855 1406.9999999999998 508.46000000000004 C 1408.9421834213217 506.0720897222639 1410.9874550599875 503.7699079430155 1413.1299999999999 501.56000000000006 C 1419.7299999999998 494.40000000000003 1425.35 486.40000000000003 1431.11 478.56000000000006 L 1435.6 472.52000000000004 C 1450.84 452.12000000000006 1463.08 429.80000000000007 1474.56 407.12 L 1476.6799999999998 402.9 C 1479.7737511748226 396.7459705013725 1482.5507121753271 390.4377297670533 1485 384.0000000000001 C 1486.07 384.97 1487.06 385.9 1488 387 C 1488.7480629403035 388.28173001405617 1489.3966348005717 389.6189915816194 1489.94 391 L 1490.46 392.2 Q 1491.31 394.15 1492.1200000000001 396.13 Q 1492.42 396.8 1492.71 397.51 C 1499.06 412.59 1505.21 427.95 1508.8700000000001 443.94 C 1510.71 452.13 1511.8400000000001 460.42 1512.8100000000002 468.75 L 1513.0100000000002 470.39 C 1513.7900000000002 477.25 1514.3700000000001 484.09 1514.0000000000002 491 Q 1513.6300000000003 495.01 1513.0000000000002 499 L 1519.0000000000002 498 L 1520.2200000000003 495.48 C 1524.0796432754382 487.6496217332656 1528.09713008548 479.8980392989523 1532.27 472.2300000000002 C 1546.340737699669 446.40910090182336 1558.5290819702655 419.60610637202296 1568.7400000000002 392.02999999999975 C 1579.9900000000002 362.17 1589.2800000000002 331.49 1595.2400000000002 300.13 C 1599.7800000000002 275.95 1602.9400000000003 251.25 1603.2400000000002 226.64 C 1603.3500000000001 209.88 1602.6000000000001 193.16 1599.8200000000002 176.6 Q 1598.3000000000002 167.85 1596.6000000000001 159.13 Q 1595.2600000000002 152.07 1594.0000000000002 145" stroke-linecap="round" />
</g>
		<g transform="matrix(0.12002648170193872 0 0 0.12002648170193872 0.23790514376986494 -49.64094843964659)"  >
<path style="stroke: none; stroke-width: 1; stroke-dasharray: none; stroke-linecap: butt; stroke-dashoffset: 0; stroke-linejoin: miter; stroke-miterlimit: 4; fill: rgb(139,0,0); fill-rule: nonzero; opacity: 1;"  paint-order="stroke"  transform=" translate(-1025.9583179528008, -649.9166995836824)" d="M 1642 274 C 1642.95 275.3 1642.95 275.3 1644 277 C 1644.45 278.55 1644.45 278.55 1644.73 280.23 L 1645.07 282.17 L 1645.3999999999999 284.25 L 1645.7699999999998 286.45 C 1646.3105301867724 289.6438275734809 1646.8338710961584 292.84054051680033 1647.3399999999997 296.03999999999996 C 1653.4399999999996 333.56999999999994 1655.6399999999996 371.22999999999996 1655.1899999999996 409.23999999999995 C 1654.686643178056 446.2362643880905 1650.9659519001239 483.1186204642124 1644.0699999999997 519.4699999999999 C 1639.2314230803224 545.0057981912745 1632.8632878050948 570.227888245703 1625 595 L 1624.43 596.8 C 1613.19 631.9399999999999 1597.8300000000002 665.93 1580.74 698.5999999999999 C 1566.39 725.8 1548.86 751.5899999999999 1530.02 775.8799999999999 C 1518.4 790.7899999999998 1506.36 805.3999999999999 1493.45 819.2099999999999 L 1492.0800000000002 820.67 L 1491.3600000000001 821.4399999999999 C 1489.9596006177744 822.9417164841167 1488.5827656924705 824.4652360019468 1487.23 826.01 C 1480.28 833.92 1472.84 841.35 1465.4 848.79 L 1460.8600000000001 853.3399999999999 C 1445.5900000000001 868.7399999999999 1445.5900000000001 868.7399999999999 1437.2600000000002 875.2099999999999 C 1434.8719156036548 877.1127727188057 1432.5759721784111 879.1283974700372 1430.38 881.2499999999999 C 1423.7 887.3699999999999 1416.4 892.7099999999999 1409.16 898.1299999999999 L 1405.7 900.7399999999999 C 1393.8472906642353 909.7000454632881 1381.6018524580245 918.1283770460915 1369 926 L 1367.44 926.98 C 1349.308888601626 938.3964344706174 1330.680603227345 949.0035129597524 1311.6100000000001 958.7700000000001 C 1294.2078565023614 967.8442490613506 1276.3096548607084 975.933661965235 1258 983 L 1256.97 983.4 C 1233.1542230501898 992.6130070291357 1208.7868998553033 1000.3313299325599 1184.01 1006.51 C 1150.4123887994735 1015.0984698885793 1116.1344796804756 1020.7629403754961 1081.56 1023.4399999999999 C 1044.73 1026.23 1006.6899999999999 1027.02 969.91 1023.41 C 928.81 1019.1899999999999 888.27 1011.92 837.9499999999999 998.31 C 806.67 989.39 776.9999999999999 976.91 747.7499999999999 962.8399999999999 L 742.7299999999999 960.4399999999999 C 728.4278850296892 953.5077662396329 714.4530427322319 945.9197071698102 700.8499999999999 937.6999999999999 Q 697.3999999999999 935.6299999999999 693.93 933.5999999999999 C 682.9755085483678 927.2280628044217 672.3208463092451 920.3540871662781 662 913 L 660.89 912.2 C 648.2035348861361 903.1488413899888 635.924800325242 893.5393969510282 624.0899999999999 883.4000000000001 C 617.3382367027591 877.7327271349322 610.7262551234668 871.9009793879919 604.26 865.91 C 601.979731635545 863.7861052517825 599.6593128282447 861.7057297693752 597.3 859.6700000000001 C 592.7498944023981 855.6994212107894 588.3469354727893 851.5633082769144 584.0999999999999 847.2700000000001 L 572.7699999999999 835.9700000000001 C 564.6899999999998 827.9700000000001 556.8399999999999 820.0300000000001 549.8499999999999 811.0700000000002 C 547.8499999999999 808.5700000000002 545.6399999999999 806.2600000000002 543.4399999999999 803.9400000000002 C 538.7012743477846 798.850316487801 534.2158512343264 793.5305512773452 530 788 L 529.24 787.01 C 504.34056594712155 754.4792765050496 482.2669101126495 719.8800420946054 463.2600000000001 683.5900000000001 C 448.15999999999997 654.96 436.23 624.5600000000001 426.27 593.77 C 422.9335735650641 583.2534643884487 419.84273412576783 572.6605874751328 416.9999999999999 562 L 416.5 560.13 C 409.26538167319086 533.1910027671283 404.01794933985116 505.75729283588385 400.8000000000002 478.04999999999995 L 400.46000000000004 475.05 C 399.894833214038 470.04125884260174 399.4081069205628 465.0239775297227 399.00000000000006 459.99999999999994 L 398.87 458.48 C 397.3054525458083 438.91998555755254 396.57479028758036 419.3022043777347 396.67999999999995 399.6800000000002 L 396.69 394.31 C 396.71 371.11 397.46 348.09000000000003 400 325 L 400.42 321.05 Q 401.3 312.76 402.35 304.49 L 402.51000000000005 303.27 C 402.8482188706945 300.816873354448 403.34594013238564 298.3883944467335 404 296 L 407 296 L 407.05 296.85 C 409.78000000000003 344.14000000000004 413.15000000000003 391.74 426 462 L 426.36 463.75 C 432.8 494.91 442.7 525.86 454.38 555.45 C 457.2190469464079 562.5773158751604 460.21982280806253 569.6391417362545 463.37999999999994 576.63 L 465.33 580.98 C 476.79 606.63 489.3 631.65 505 655 C 509.1754624697718 661.1124525469626 513.510281725834 667.1145099784334 518 673.0000000000001 L 518.72 673.96 C 531.02 690.1700000000001 544.38 705.83 559 720 L 559 722 L 560.6 722.63 C 561.72 723.1899999999999 561.72 723.1899999999999 563 724 C 564.8807467785563 725.6340442405931 566.7083614253097 727.3282563583863 568.48 729.08 C 580.61 740.7800000000001 594.16 750.45 608 760 L 609.58 761.1 L 614.4000000000001 764.39 Q 615.6800000000001 765.23 617.0000000000001 766 Q 618.5000000000001 766.52 620.0000000000001 767 L 619.5700000000002 766.04 C 599.7200000000001 721.41 599.7200000000001 721.41 594.8700000000001 701.93 C 589.5800000000002 680.51 589.5800000000002 680.51 589.0500000000001 673.0999999999999 C 588.83 668.5699999999999 588.9000000000001 664.0299999999999 588.94 659.4999999999999 L 588.95 656.1399999999999 L 589 647.9999999999999 L 594 648.9999999999999 C 603.57 659.4799999999999 603.57 659.4799999999999 607.38 663.8799999999999 C 612.4765142813905 669.6862022959009 617.6841424570939 675.3939228060191 623 681 L 624.05 682.12 C 627.92 686.24 632.13 689.79 636.54 693.32 C 640 696.12 643.27 699.0600000000001 646.5 702.11 C 652.7383760796336 707.9252648643711 659.2773509328401 713.4094586794903 666.09 718.54 L 671.13 722.42 C 680.1610977899209 729.536090516558 689.4682746776025 736.2946354536343 699.03 742.6799999999998 C 705.3021047830629 746.865013558877 711.6259254429726 750.9719967180803 718.0000000000002 755.0000000000002 L 719.39 755.88 C 737.42 767.28 756.17 777.08 775.23 786.61 L 780.83 789.44 C 805.0600000000001 801.84 831.4000000000001 811.11 857.36 819.1400000000001 C 889.3748089924181 828.95929429778 922.1761045938388 836.0020041346824 955.3999999999996 840.1899999999999 L 960.47 840.8100000000001 L 964.6600000000001 841.34 C 989.1100000000001 844.51 1014.3800000000001 844.44 1039 844 L 1040.51 843.97 C 1075.24 843.35 1109.62 839.28 1143.68 832.6600000000001 C 1162.48 828.97 1180.78 823.8600000000001 1199 818.0000000000001 L 1199.98 817.6800000000001 C 1233.53694315796 806.8993633898972 1266.092896158888 793.2211788197231 1297.2800000000002 776.8 C 1322.787073984258 763.1973989843954 1347.1059703791188 747.4754164457645 1369.98 729.8000000000001 Q 1371.58 728.5500000000001 1373.21 727.3100000000001 C 1383.4264883233182 719.5642112931293 1393.362832423269 711.4557008846094 1403 702.9999999999999 L 1404.37 701.79 Q 1408.7199999999998 697.92 1413 694 L 1414.4 692.72 L 1422.68 685.12 L 1428.1100000000001 680.17 C 1436.5700000000002 672.49 1444.7700000000002 664.68 1452.17 655.9699999999999 L 1454.77 652.9399999999999 L 1459 648 L 1462 648 C 1462.48 649.7 1462.93 651.33 1463.12 653.07 Q 1463.2099999999998 654.7900000000001 1463.2399999999998 656.5 L 1463.2699999999998 657.8 C 1463.3999999999999 664.81 1463.4499999999998 671.89 1462.4199999999998 678.8399999999999 C 1461.530959811018 683.9466921150471 1460.3895618190643 689.0062223951693 1459 694 L 1458.57 695.64 C 1453.71 713.88 1447.6599999999999 731.38 1439.7 748.52 C 1438.2035742207604 751.648189722352 1436.6499803557283 754.7487096675875 1435.04 757.8199999999999 C 1433.3696908654556 761.0757882276042 1432.0167804358694 764.4848546071062 1431 768 C 1435.98 765.3 1440.54 762.27 1445.06 758.88 L 1450.02 755.1899999999999 Q 1453.34 752.7399999999999 1456.73 750.3699999999999 C 1463.48806766839 745.7307479102785 1469.8953878255697 740.6002124688225 1475.9 735.0199999999999 C 1477.6000000000001 733.4399999999998 1479.3600000000001 731.9399999999998 1481.1200000000001 730.4399999999998 C 1484.2687469169418 727.6806001076125 1487.3013674871156 724.7914368361377 1490.21 721.7799999999999 C 1492.293297845443 719.670400552192 1494.518494146747 717.7058128267166 1496.8700000000001 715.8999999999999 C 1502.5300000000002 711.3799999999999 1507.22 705.4099999999999 1512.0000000000002 699.9999999999999 L 1512.6900000000003 699.2299999999999 C 1520.9386309365802 689.8781690367588 1528.7181943271116 680.1228435152988 1536 669.9999999999998 L 1536.62 669.15 C 1552.9299999999998 646.5799999999999 1566.9399999999998 622.1999999999999 1579.09 597.17 C 1584.0854578308076 586.6053928332481 1588.7247388157907 575.8760133014794 1593 565 L 1593.6 563.51 C 1608.4599999999998 526.3199999999999 1619.35 487.6 1627.56 448.43 C 1634.4497208148061 414.98319854183734 1638.9411535242682 381.08691731261547 1641 346.9999999999999 L 1641.1 345.58 C 1642.62 321.77 1642.1 297.84999999999997 1642 274" stroke-linecap="round" />
</g>
</g>
</g>
<g transform="matrix(-0.9998476951563913 -0.017452406437283637 0.017452406437283637 -0.9998476951563913 616.900317503949 197.50774035087716)" id="text-logo"  >
<g style=""  paint-order="stroke"   >
		<g transform="matrix(1 0 0 1 0 0)" id="text-logo-path-0"  >
<linearGradient id="SVGID_117483" gradientUnits="userSpaceOnUse" gradientTransform="matrix(1 0 0 1 0 0)"  x1="-1" y1="-52.748400000000004" x2="-1" y2="15.251599999999996">
<stop offset="0%" style="stop-color:rgb(245,81,95);stop-opacity: 1"/>
<stop offset="100%" style="stop-color:rgb(159,4,27);stop-opacity: 1"/>
</linearGradient>
<path style="stroke: rgb(255,255,255); stroke-width: 0; stroke-dasharray: none; stroke-linecap: butt; stroke-dashoffset: 0; stroke-linejoin: miter; stroke-miterlimit: 4; fill: url(#SVGID_117483); fill-rule: nonzero; opacity: 1;"  paint-order="stroke"  transform=" translate(0, 0)" d="" stroke-linecap="round" />
</g>
</g>
</g>
</svg>